name D:\school\WTK\thesis\model\3dpredictsim\Results\batch_windlass\Pog_s1_tmt_bCst_d05_k800_WL10_ig24_act_TTC.mot
datacolumns 128
datarows 4
range 0.58246907 0.61741721
endheader
time	pelvis_tilt	pelvis_list	pelvis_rotation	pelvis_tx	pelvis_ty	pelvis_tz	hip_flexion_l	hip_adduction_l	hip_rotation_l	hip_flexion_r	hip_adduction_r	hip_rotation_r	knee_angle_l	knee_angle_r	ankle_angle_l	ankle_angle_r	subtalar_angle_l	subtalar_angle_r	tmt_angle_l	tmt_angle_r	mtp_angle_l	mtp_angle_r	lumbar_extension	lumbar_bending	lumbar_rotation	arm_flex_l	arm_add_l	arm_rot_l	arm_flex_r	arm_add_r	arm_rot_r	elbow_flex_l	elbow_flex_r	pro_sup_l	pro_sup_r	glut_med1_l/activation	glut_med2_l/activation	glut_med3_l/activation	glut_min1_l/activation	glut_min2_l/activation	glut_min3_l/activation	semimem_l/activation	semiten_l/activation	bifemlh_l/activation	bifemsh_l/activation	sar_l/activation	add_long_l/activation	add_brev_l/activation	add_mag1_l/activation	add_mag2_l/activation	add_mag3_l/activation	tfl_l/activation	pect_l/activation	grac_l/activation	glut_max1_l/activation	glut_max2_l/activation	glut_max3_l/activation	iliacus_l/activation	psoas_l/activation	quad_fem_l/activation	gem_l/activation	peri_l/activation	rect_fem_l/activation	vas_med_l/activation	vas_int_l/activation	vas_lat_l/activation	med_gas_l/activation	lat_gas_l/activation	soleus_l/activation	tib_post_l/activation	flex_dig_l/activation	flex_hal_l/activation	tib_ant_l/activation	per_brev_l/activation	per_long_l/activation	per_tert_l/activation	ext_dig_l/activation	ext_hal_l/activation	ercspn_l/activation	intobl_l/activation	extobl_l/activation	glut_med1_r/activation	glut_med2_r/activation	glut_med3_r/activation	glut_min1_r/activation	glut_min2_r/activation	glut_min3_r/activation	semimem_r/activation	semiten_r/activation	bifemlh_r/activation	bifemsh_r/activation	sar_r/activation	add_long_r/activation	add_brev_r/activation	add_mag1_r/activation	add_mag2_r/activation	add_mag3_r/activation	tfl_r/activation	pect_r/activation	grac_r/activation	glut_max1_r/activation	glut_max2_r/activation	glut_max3_r/activation	iliacus_r/activation	psoas_r/activation	quad_fem_r/activation	gem_r/activation	peri_r/activation	rect_fem_r/activation	vas_med_r/activation	vas_int_r/activation	vas_lat_r/activation	med_gas_r/activation	lat_gas_r/activation	soleus_r/activation	tib_post_r/activation	flex_dig_r/activation	flex_hal_r/activation	tib_ant_r/activation	per_brev_r/activation	per_long_r/activation	per_tert_r/activation	ext_dig_r/activation	ext_hal_r/activation	ercspn_r/activation	intobl_r/activation	extobl_r/activation	
          0.58246907	         -2.92664008	          0.40270804	         -7.90538568	          0.72808633	          0.85768261	          0.00045608	         32.87211250	         -0.41680286	         -0.08961907	        -15.67101967	         -1.96765086	         10.35978023	        -21.00313576	        -16.96556572	         -1.74941717	        -11.10395044	          8.15012725	         18.73979846	         -0.00275990	         -2.57514280	          0.31591907	         32.32553449	          1.00638231	          2.35051189	          2.60348477	        -14.72338306	        -13.69899011	          9.06087354	          3.47722393	        -13.47103316	         16.27435377	         20.20384494	         40.10176250	         86.51662706	         86.51662706	          0.05175622	          0.05930258	          0.05970739	          0.05000708	          0.05000650	          0.05000414	          0.12046218	          0.05971562	          0.19839101	          0.07118550	          0.05000178	          0.05182787	          0.06583921	          0.12231054	          0.11550872	          0.12179554	          0.05000535	          0.05000492	          0.06956633	          0.05970733	          0.07218492	          0.10851585	          0.07061354	          0.06988331	          0.10061639	          0.05971146	          0.05000107	          0.05000015	          0.05000052	          0.05000112	          0.05000237	          0.08514382	          0.08514374	          0.07130050	          0.05000128	          0.05970513	          0.05572639	          0.38727715	          0.19251093	          0.12141684	          0.11863146	          0.45353939	          0.13438378	          0.05000006	          0.13548582	          0.15075992	          0.16033698	          0.06867695	          0.05725616	          0.20059219	          0.13593149	          0.08514076	          0.05000381	          0.05000048	          0.05000050	          0.05000096	          0.08515398	          0.06624937	          0.05000051	          0.05000052	          0.05000124	          0.05000118	          0.17279280	          0.05000295	          0.05000093	          0.05000562	          0.05000304	          0.05000135	          0.33443790	          0.58364631	          0.05000046	          0.05000339	          0.05971027	          0.29483845	          0.05970738	          0.05970687	          0.09622160	          0.14150590	          0.21090777	          0.05000007	          0.14498790	          0.15856191	          0.16903926	          0.11195186	          0.47878618	          0.38827206	          0.42294121	          0.34628192	          0.05000032	          0.05000001	          0.05787180	          0.05000011	
          0.59411845	         -2.91597877	          0.37011631	         -8.10346202	          0.74670700	          0.85624523	          0.00018674	         32.44054568	         -0.20540955	          0.11801634	        -15.74836219	         -2.14573791	         10.16949334	        -21.12243387	        -18.24915676	         -2.05379802	        -13.86547714	          7.67501089	         19.14752833	         -0.01464924	         -3.01155423	          0.38159559	         33.52158433	          1.23676066	          2.15894005	          2.67377496	        -15.98899924	        -13.67920821	          9.18067562	          3.13290984	        -13.51069378	         16.56271301	         20.09658135	         41.00370401	         86.51662706	         86.51662706	          0.09640007	          0.05000028	          0.05000019	          0.05009304	          0.05000345	          0.05000168	          0.10167547	          0.05000661	          0.16613522	          0.05961162	          0.05970634	          0.08514489	          0.13979337	          0.12721639	          0.17194222	          0.16133858	          0.05000040	          0.07136675	          0.05825593	          0.05000030	          0.11289994	          0.16513705	          0.07129994	          0.06090495	          0.08425758	          0.05000958	          0.08059296	          0.05405815	          0.16891530	          0.15989336	          0.14552167	          0.07130040	          0.07130034	          0.05970785	          0.05000009	          0.05000030	          0.05000058	          0.57149521	          0.16121084	          0.10167584	          0.49485595	          0.56667105	          0.37881928	          0.05000004	          0.11345736	          0.12624806	          0.13426807	          0.05751097	          0.05000010	          0.16797826	          0.11383066	          0.07129816	          0.05000270	          0.05000027	          0.05000023	          0.05000056	          0.07130960	          0.13454928	          0.20509711	          0.07537862	          0.05000575	          0.05000072	          0.14469875	          0.09887863	          0.05000912	          0.05000168	          0.05000109	          0.05000074	          0.28006212	          0.48875219	          0.05000044	          0.05000119	          0.05000252	          0.24690107	          0.05000255	          0.05000133	          0.08450699	          0.11849864	          0.17661655	          0.05000001	          0.12141451	          0.13278158	          0.14155541	          0.31402259	          0.49969015	          0.37086514	          0.67519384	          0.51565849	          0.26025918	          0.05000001	          0.05508643	          0.07327599	
          0.60576783	         -2.89907132	          0.35245874	         -8.26998536	          0.76550288	          0.85437818	         -0.00008196	         31.91079649	          0.06718908	          0.40144478	        -15.62323627	         -2.29039870	          9.96852691	        -21.89049020	        -19.94905682	         -2.21707858	        -16.35388404	          7.16352357	         19.49620164	         -0.01458469	         -3.27940595	          0.50321728	         33.62411943	          1.47351074	          1.93575702	          2.73230030	        -17.22489929	        -13.67278641	          9.36440292	          2.73282278	        -13.57570166	         16.81269328	         19.94681745	         41.90281348	         86.51662706	         86.51662706	          0.21873854	          0.15489146	          0.23822450	          0.05000043	          0.05000045	          0.05000068	          0.08514423	          0.05000013	          0.13912353	          0.05000011	          0.05000103	          0.07130152	          0.11706481	          0.23722620	          0.23652156	          0.17654096	          0.05000128	          0.05976569	          0.05003563	          0.15133429	          0.17742041	          0.18765247	          0.05970797	          0.05970779	          0.17442945	          0.05000091	          0.06748966	          0.05970782	          0.29956506	          0.27142174	          0.24374484	          0.05970777	          0.05970773	          0.05000003	          0.12043363	          0.05000141	          0.05000039	          0.53587289	          0.13499980	          0.08514452	          0.41439821	          0.47453691	          0.31722767	          0.05000005	          0.09501048	          0.10572156	          0.11243764	          0.05970819	          0.05971062	          0.14066697	          0.09532317	          0.05970854	          0.05000523	          0.05000232	          0.05970763	          0.05000027	          0.05971589	          0.20270744	          0.30740336	          0.24774771	          0.11373331	          0.09904025	          0.12117246	          0.08280294	          0.05971888	          0.05970895	          0.05970924	          0.05971009	          0.23452722	          0.43750871	          0.07130170	          0.06766280	          0.05970790	          0.20675776	          0.06767669	          0.08972222	          0.07642394	          0.09923210	          0.14790071	          0.05000002	          0.10167389	          0.11119285	          0.11854013	          0.41542541	          0.48075482	          0.35352813	          0.72560810	          0.59602716	          0.35457909	          0.07834181	          0.06264390	          0.06136234	
          0.61741721	         -2.87855615	          0.34129602	         -8.39905617	          0.78426866	          0.85229213	         -0.00033223	         31.18389147	          0.36671447	          0.73746255	        -15.29018119	         -2.39802352	          9.77199301	        -22.92556165	        -22.04541256	         -1.90669434	        -18.37715269	          6.62143922	         19.76822698	         -0.24066814	         -3.30252539	          0.39332436	         31.96602581	          1.70367997	          1.69387527	          2.77643316	        -18.37247795	        -13.67653211	          9.64315337	          2.31260705	        -13.65217112	         17.03184580	         19.70680386	         42.75432865	         86.51662706	         86.51662706	          0.31534679	          0.39251147	          0.52396911	          0.13910850	          0.19536567	          0.32459029	          0.07130088	          0.08003472	          0.11650363	          0.05970831	          0.05000105	          0.05970875	          0.09803145	          0.19865617	          0.20842423	          0.19102119	          0.05000017	          0.05004911	          0.07130147	          0.30523991	          0.26229866	          0.22713762	          0.05000020	          0.05000012	          0.20677574	          0.05371099	          0.24144134	          0.05000003	          0.25689844	          0.27961990	          0.26655240	          0.05000000	          0.05000002	          0.05000000	          0.15522654	          0.05000632	          0.05000142	          0.59587520	          0.11305038	          0.07130099	          0.34702186	          0.48044215	          0.40022243	          0.05000002	          0.07956286	          0.08853243	          0.11628389	          0.05000043	          0.05000237	          0.11779633	          0.07982480	          0.05000091	          0.05000351	          0.05000019	          0.05000031	          0.05000015	          0.05000734	          0.16974963	          0.25742346	          0.20746688	          0.09524215	          0.08293776	          0.10147141	          0.06934060	          0.05000947	          0.05000223	          0.05000184	          0.05000212	          0.19639577	          0.41331866	          0.05970888	          0.05666178	          0.05000025	          0.17314130	          0.08514441	          0.07513486	          0.06399906	          0.08309809	          0.12385374	          0.05000010	          0.08514288	          0.09311421	          0.09926688	          0.37305083	          0.40259089	          0.30009519	          0.65399360	          0.77261783	          0.29692868	          0.11573137	          0.05245872	          0.05168515	
